<mxfile host="app.diagrams.net" agent="Mozilla/5.0 (Windows NT 10.0; Win64; x64; rv:139.0) Gecko/20100101 Firefox/139.0" version="28.0.7">
  <diagram name="Page-1" id="sRtkrOEBQdkYfJx27v5E">
    <mxGraphModel dx="1018" dy="1255" grid="0" gridSize="10" guides="1" tooltips="1" connect="1" arrows="1" fold="1" page="0" pageScale="1" pageWidth="850" pageHeight="1100" math="0" shadow="0">
      <root>
        <mxCell id="0" />
        <mxCell id="1" parent="0" />
        <mxCell id="WvlIWUbB5y61E1AISkJT-2" value="" style="rounded=0;whiteSpace=wrap;html=1;strokeColor=light-dark(#c0c0c0, #ededed);movable=0;resizable=0;rotatable=0;deletable=0;editable=0;locked=1;connectable=0;" vertex="1" parent="1">
          <mxGeometry x="-90" y="-64" width="120" height="379" as="geometry" />
        </mxCell>
        <mxCell id="WvlIWUbB5y61E1AISkJT-3" value="source" style="rounded=0;whiteSpace=wrap;html=1;strokeColor=none;" vertex="1" parent="1">
          <mxGeometry x="-76" y="-72" width="94" height="22" as="geometry" />
        </mxCell>
        <mxCell id="WvlIWUbB5y61E1AISkJT-4" value="" style="rounded=0;whiteSpace=wrap;html=1;strokeColor=light-dark(#c0c0c0, #1e170d);movable=0;resizable=0;rotatable=0;deletable=0;editable=0;locked=1;connectable=0;" vertex="1" parent="1">
          <mxGeometry x="82" y="-64" width="476" height="378" as="geometry" />
        </mxCell>
        <mxCell id="WvlIWUbB5y61E1AISkJT-5" value="Data Warehouse" style="rounded=0;whiteSpace=wrap;html=1;strokeColor=none;" vertex="1" parent="1">
          <mxGeometry x="239" y="-72" width="94" height="22" as="geometry" />
        </mxCell>
        <mxCell id="WvlIWUbB5y61E1AISkJT-6" value="" style="rounded=0;whiteSpace=wrap;html=1;" vertex="1" parent="1">
          <mxGeometry x="592" y="-65" width="120" height="381" as="geometry" />
        </mxCell>
        <mxCell id="WvlIWUbB5y61E1AISkJT-7" value="" style="rounded=0;whiteSpace=wrap;html=1;fillColor=none;strokeColor=#D79B00;" vertex="1" parent="1">
          <mxGeometry x="103" y="-18" width="120" height="312" as="geometry" />
        </mxCell>
        <mxCell id="WvlIWUbB5y61E1AISkJT-8" value="Bronze layer" style="rounded=0;whiteSpace=wrap;html=1;fillColor=#ffe6cc;strokeColor=#d79b00;" vertex="1" parent="1">
          <mxGeometry x="103" y="-42" width="120" height="24" as="geometry" />
        </mxCell>
        <mxCell id="WvlIWUbB5y61E1AISkJT-9" value="" style="rounded=0;whiteSpace=wrap;html=1;fillColor=none;fontColor=#333333;strokeColor=#666666;" vertex="1" parent="1">
          <mxGeometry x="242" y="-18" width="120" height="312" as="geometry" />
        </mxCell>
        <mxCell id="WvlIWUbB5y61E1AISkJT-10" value="Bronze layer" style="rounded=0;whiteSpace=wrap;html=1;fillColor=#f5f5f5;fontColor=#333333;strokeColor=#666666;" vertex="1" parent="1">
          <mxGeometry x="242" y="-42" width="120" height="24" as="geometry" />
        </mxCell>
        <mxCell id="WvlIWUbB5y61E1AISkJT-11" value="" style="rounded=0;whiteSpace=wrap;html=1;fillColor=none;strokeColor=#d6b656;" vertex="1" parent="1">
          <mxGeometry x="388" y="-18" width="120" height="312" as="geometry" />
        </mxCell>
        <mxCell id="WvlIWUbB5y61E1AISkJT-12" value="Bronze layer" style="rounded=0;whiteSpace=wrap;html=1;fillColor=#fff2cc;strokeColor=#d6b656;" vertex="1" parent="1">
          <mxGeometry x="388" y="-42" width="120" height="24" as="geometry" />
        </mxCell>
        <mxCell id="WvlIWUbB5y61E1AISkJT-13" value="CRM" style="image;aspect=fixed;html=1;points=[];align=center;fontSize=12;image=img/lib/azure2/general/Folder_Blank.svg;" vertex="1" parent="1">
          <mxGeometry x="-50" y="50" width="47" height="38.14" as="geometry" />
        </mxCell>
        <mxCell id="WvlIWUbB5y61E1AISkJT-15" value="" style="verticalLabelPosition=bottom;html=1;verticalAlign=top;align=center;strokeColor=none;fillColor=#00BEF2;shape=mxgraph.azure.cloud_services_configuration_file;pointerEvents=1;" vertex="1" parent="1">
          <mxGeometry x="-17" y="63" width="23" height="30" as="geometry" />
        </mxCell>
        <mxCell id="WvlIWUbB5y61E1AISkJT-18" value="ERP" style="image;aspect=fixed;html=1;points=[];align=center;fontSize=12;image=img/lib/azure2/general/Folder_Blank.svg;" vertex="1" parent="1">
          <mxGeometry x="-50" y="122" width="47" height="38.14" as="geometry" />
        </mxCell>
        <mxCell id="WvlIWUbB5y61E1AISkJT-19" value="" style="verticalLabelPosition=bottom;html=1;verticalAlign=top;align=center;strokeColor=none;fillColor=#00BEF2;shape=mxgraph.azure.cloud_services_configuration_file;pointerEvents=1;" vertex="1" parent="1">
          <mxGeometry x="-17" y="135" width="23" height="30" as="geometry" />
        </mxCell>
        <mxCell id="WvlIWUbB5y61E1AISkJT-20" value="Raw data" style="html=1;verticalLabelPosition=bottom;align=center;labelBackgroundColor=#ffffff;verticalAlign=top;strokeWidth=2;strokeColor=#d79b00;shadow=0;dashed=0;shape=mxgraph.ios7.icons.data;fillColor=#ffe6cc;" vertex="1" parent="1">
          <mxGeometry x="144.25" width="37.5" height="46.86" as="geometry" />
        </mxCell>
        <mxCell id="WvlIWUbB5y61E1AISkJT-21" value="&lt;div&gt;Cleaned,&amp;nbsp;&lt;/div&gt;&lt;div&gt;Standardized&amp;nbsp;&lt;/div&gt;&lt;div&gt;data&lt;/div&gt;" style="html=1;verticalLabelPosition=bottom;align=center;labelBackgroundColor=#ffffff;verticalAlign=top;strokeWidth=2;strokeColor=#666666;shadow=0;dashed=0;shape=mxgraph.ios7.icons.data;fillColor=#f5f5f5;fontColor=#333333;" vertex="1" parent="1">
          <mxGeometry x="283.5" y="-6" width="37" height="47.86" as="geometry" />
        </mxCell>
        <mxCell id="WvlIWUbB5y61E1AISkJT-22" value="&lt;div&gt;Businees-ready&lt;/div&gt;&lt;div&gt;-data&lt;/div&gt;" style="html=1;verticalLabelPosition=bottom;align=center;labelBackgroundColor=#ffffff;verticalAlign=top;strokeWidth=2;strokeColor=#d6b656;shadow=0;dashed=0;shape=mxgraph.ios7.icons.data;fillColor=#fff2cc;" vertex="1" parent="1">
          <mxGeometry x="435" y="2" width="33" height="44.86" as="geometry" />
        </mxCell>
        <mxCell id="WvlIWUbB5y61E1AISkJT-23" value="" style="shape=flexArrow;endArrow=classic;html=1;rounded=0;fontSize=12;startSize=8;endSize=8;curved=1;" edge="1" parent="1">
          <mxGeometry width="50" height="50" relative="1" as="geometry">
            <mxPoint x="11" y="102" as="sourcePoint" />
            <mxPoint x="101" y="102" as="targetPoint" />
          </mxGeometry>
        </mxCell>
        <mxCell id="WvlIWUbB5y61E1AISkJT-25" value="" style="shape=flexArrow;endArrow=classic;html=1;rounded=0;fontSize=12;startSize=8;endSize=8;curved=1;" edge="1" parent="1">
          <mxGeometry width="50" height="50" relative="1" as="geometry">
            <mxPoint x="200" y="111.47999999999999" as="sourcePoint" />
            <mxPoint x="263" y="111" as="targetPoint" />
          </mxGeometry>
        </mxCell>
        <mxCell id="WvlIWUbB5y61E1AISkJT-28" value="" style="shape=flexArrow;endArrow=classic;html=1;rounded=0;fontSize=12;startSize=8;endSize=8;curved=1;" edge="1" parent="1">
          <mxGeometry width="50" height="50" relative="1" as="geometry">
            <mxPoint x="344" y="106.99999999999999" as="sourcePoint" />
            <mxPoint x="404" y="107" as="targetPoint" />
          </mxGeometry>
        </mxCell>
        <mxCell id="WvlIWUbB5y61E1AISkJT-29" value="&lt;br&gt;&lt;li data-end=&quot;226&quot; data-start=&quot;179&quot;&gt;&lt;p data-end=&quot;226&quot; data-start=&quot;181&quot;&gt;&lt;strong data-end=&quot;196&quot; data-start=&quot;181&quot;&gt;object_type&lt;/strong&gt;: Tables&lt;/p&gt;&lt;p data-end=&quot;274&quot; data-start=&quot;229&quot;&gt;&lt;strong data-end=&quot;237&quot; data-start=&quot;229&quot;&gt;load&lt;/strong&gt;: &quot;append-only, batch atau streaming&quot;&lt;/p&gt;&lt;/li&gt;&lt;li data-end=&quot;434&quot; data-start=&quot;368&quot;&gt;&lt;p data-end=&quot;434&quot; data-start=&quot;370&quot;&gt;&lt;strong data-end=&quot;384&quot; data-start=&quot;370&quot;&gt;data_model&lt;/strong&gt;: &quot;flat/raw, schema-on-read, tidak ternormalisasi&quot;&lt;/p&gt;&lt;/li&gt;" style="text;strokeColor=none;fillColor=none;html=1;align=left;verticalAlign=middle;whiteSpace=wrap;rounded=0;fontSize=13;" vertex="1" parent="1">
          <mxGeometry x="124" y="158" width="84.75" height="30" as="geometry" />
        </mxCell>
        <mxCell id="WvlIWUbB5y61E1AISkJT-31" value="&lt;br&gt;&lt;li data-end=&quot;226&quot; data-start=&quot;179&quot;&gt;&lt;p data-end=&quot;226&quot; data-start=&quot;181&quot;&gt;&lt;strong data-end=&quot;196&quot; data-start=&quot;181&quot;&gt;object_type&lt;/strong&gt;: Tables&lt;/p&gt;&lt;p data-end=&quot;274&quot; data-start=&quot;229&quot;&gt;&lt;strong data-end=&quot;237&quot; data-start=&quot;229&quot;&gt;load&lt;/strong&gt;:&amp;nbsp; batch atau streaming&quot;&lt;/p&gt;&lt;/li&gt;&lt;li data-end=&quot;434&quot; data-start=&quot;368&quot;&gt;&lt;p data-end=&quot;434&quot; data-start=&quot;370&quot;&gt;transform: &quot;filter, deduplication, join antar tabel, validasi data&lt;/p&gt;&lt;/li&gt;" style="text;strokeColor=none;fillColor=none;html=1;align=left;verticalAlign=middle;whiteSpace=wrap;rounded=0;fontSize=13;" vertex="1" parent="1">
          <mxGeometry x="259.63" y="165" width="84.75" height="36" as="geometry" />
        </mxCell>
        <mxCell id="WvlIWUbB5y61E1AISkJT-33" value="&lt;br&gt;&lt;li data-end=&quot;226&quot; data-start=&quot;179&quot;&gt;&lt;p data-end=&quot;226&quot; data-start=&quot;181&quot;&gt;&lt;strong data-end=&quot;196&quot; data-start=&quot;181&quot;&gt;object_type&lt;/strong&gt;: Views&lt;/p&gt;&lt;p data-end=&quot;274&quot; data-start=&quot;229&quot;&gt;&lt;strong data-end=&quot;237&quot; data-start=&quot;229&quot;&gt;Tansfom&lt;/strong&gt;&lt;/p&gt;&lt;/li&gt;&lt;div&gt;data integration&lt;/div&gt;&lt;div&gt;aggregate&lt;/div&gt;&lt;div&gt;businees logi&lt;strong&gt;c&lt;/strong&gt;&lt;/div&gt;&lt;div&gt;&lt;br&gt;&lt;/div&gt;&lt;div&gt;data model&lt;/div&gt;&lt;div&gt;star schema&lt;/div&gt;" style="text;strokeColor=none;fillColor=none;html=1;align=left;verticalAlign=middle;whiteSpace=wrap;rounded=0;fontSize=13;" vertex="1" parent="1">
          <mxGeometry x="417" y="168" width="84.75" height="36" as="geometry" />
        </mxCell>
        <mxCell id="WvlIWUbB5y61E1AISkJT-34" value="Consume" style="rounded=0;whiteSpace=wrap;html=1;strokeColor=none;" vertex="1" parent="1">
          <mxGeometry x="609" y="-76" width="94" height="22" as="geometry" />
        </mxCell>
        <mxCell id="WvlIWUbB5y61E1AISkJT-47" value="BI reporting" style="image;html=1;image=img/lib/clip_art/finance/Graph_128x128.png" vertex="1" parent="1">
          <mxGeometry x="631" y="-38.14" width="58" height="65.14" as="geometry" />
        </mxCell>
        <mxCell id="WvlIWUbB5y61E1AISkJT-48" value="ML ready" style="shape=image;verticalLabelPosition=bottom;labelBackgroundColor=default;verticalAlign=top;aspect=fixed;imageAspect=0;image=data:image/png,iVBORw0KGgoAAAANSUhEUgAAAIAAAACACAYAAADDPmHLAAAACXBIWXMAAAOwAAADsAEnxA+tAAAAGXRFWHRTb2Z0d2FyZQB3d3cuaW5rc2NhcGUub3Jnm+48GgAAIABJREFUeJztnXd8FcXax7/n5CRAAiGB0EssNEWaSBVE5NJtgIC941Wv+toVrNgbehX1qnAV7IJgQWygUpQi2AtgAaRjgNASIJDM+8dzNtmdnT1nTwECl9/nM3+cPbMzszuzM09/oPyjKfADUAisBd4FhgLBJPfTBHgc+AnYHi6/AE8AzZLc1yHEgJcBZSjfI4sjUQSBe4HdHv2o8H8PAylJ6O8Q/GJevured8i5f+E9MZuBYxPoIgC8EqF9vUwI33PQoNyu6Pmb1AgCavxx3U7K2r51K6lpFSjes4fCgu32ahWBvsBLwK44urkauMV+IZQSoHWzatSrlc6GzbsoLlH2v5sDBcCcOPo6BB9oCIw6rts/Xp+1tlDNyy9xlLmbitW9/31dVc6sqn+Z98TRVyawyd5Ov6511erpA5X64RylfjhHrft8kDr9pAZ6X1uA6kl41nKB8rYDzAAGrPlraYs9xXtof+I/HH8GAgGOPOoYmh/XgY/efMX+VxPgHSA7hjIUGGA10KFFDtNf6EHVyqmljVZODzGkV0NmLFzPX2sLrMsVgD+Ab5P10PsTyaakE0EG0Nr6seL3JZ4V23btTscefeyX6gB/xlj+bW/gkevakBJ0H+/BYIBHr3eRGSf4e6Tyj/K0ABraf9SoUy9i5aOPbZfUzls3y/b8r02zbALOtVEnqZ3vR5SnBbDZ/iN/Y17Eyls35ye3861Fnv/lby1COWhBNiW18/2I0P4egA0bgZ0IZc+86R+zeUMeWTk1XBULt29j5gfv2C+VAP9FiDS/OAbobP2YOG0FN5x/lLHiKx8s0y+tjaGfQ/CBAcDvaHx3xx69lc4NzF63Q/U+42ydMv8ijj6b2duonB5Ss8f1KuUArDL3ld4qvWJI768YGA/UT/C59zv2t1CjLTAK6OZVIbdxU8649EoaNmrKmr+W8faYZ/hz0c96tQGIiDgWVEGIwdItJiUYYNigRvQ5vi6BAEybt47nJvzGnmLPjaUQeAx4BJEPHIJP1AWeB/bgXwoXqXwJVI6h/0rIrpGMvhWwGriM8sdWlztkACORr8X0IhcBD3r8F618hkxsNKQBH8bZx2Jkx9rp8f93QPeY38r/AILARciXYnpxecBVyAT+6FHHXn7BrCT6hDAR6YEQMMlw30PAOEScHK3vy4AjgIkR6ryHCKcOAfkivsX8onYhZ2hWuO5N2v+rEEr9n4jM/nzgOMpol3sNbX6AfOU6gpgXzUO2OjnAIODGcBkM3KDV3wTUDNfvAnzt8WxFwJMcRGLjWNEY0Z55fSVTgCNt9RsC27Q6Z/jo535D2x8iIlsLAeBZQ72nfbQfwE0vvKz9PxhY5vGcm5DFax/PQY1s5KvyOicXYhalvqfV+ziGPh8y9DOJMjnHw4b/x+NfENYc+aLt9/fQ6lRCJnqLoS+FsLmD2f+c115DGnAdmobNVlYA52J+AQO0ugXIOesXAWC0oc/XEU2hfv0tYqfY9UW2GPNXXRsYgzeHMwNhf8s1coBTgEuBcxCji0grdwDwG+YH3gbcjjeFXhlZHPZ7hscx5gDCWkYj4qYAqR5tREI67m3+zgj1WwLTPMZQjBCdkRQeWUA/4BKE9unIPpDcHo0IVEyrdyVwpTaItsiKNj3kHmAs0RUno7T7fsFMxPlBEHjRYzwKmE5kLiEaTtba2wE08nHPIo/xFAB3I+yxhcOBNzFzJOuQYyaeBRwVZyEPFO0Lmo6cieOQlexVp5WPPlvjtMUrIXFVaxCYaRjTOmITFnlBZyM/9XFPCPgXwu6a3tdqhE0+GTchbCpfY5NgRsFhCGtdiOzERvQlOVK5ReGH8IMgMFe7/0Wf90bCGRGe5ckktF8f2Kq1e5bPe7OAR/EmkGMp3+BvN3tSu+8+vUJl5OsorZSRlqZuPP4E9eqgoerp/qepzg1yow3GEuTEsjVdrrWxAaE9EkE/ogtzHk2wDxBi197mWspkGX5wJJEFSSqlQqpqfX5v1fuRK9RJd1+k6nc42lTvXh993Wq47y7rz0D4YR63Lhyenc3H511Co2pl8osSpRg5Yzr3zfxcb7wIob7vQ9PnR0EthIq2v7RLSGwH6A5MxUls/gksQRaGHQ8CIxLoKwQswGbBhMgZ/hVjO12Qd++wbsmokcWAF2+leiMbjagU3770EbMffcNedTvCdURSRFVEhGM623ob8EAAOS9Lz93PL7yMbocd7mpFKUWP8WOZuXyp/fJAxBYvVryKcBcWZiMaQRVHWyAU8jScZ/xKoCuyu72DHHN2jEQIsHjRAbEOtmQJJUAn5HyOBQGEkC6dg1OeuY4jTjJbu0+58nGWfvGd/dIbCBcVCenAFbi5iDNDQKkVRKNq1Y2TD2KQeVGbtvoCqBalYxP+gXPyd4cHF+/kt0Ykf/bJXxfu56/w74HA+0BPW527kB3sgTj7nY+wnVeEfweB54D2CA3iFwrbe0yvnskR3dt4Vm4+qJu+APzSHybcEUT04gDkpGdEqAs1M1xE9NWI/L4D/njUCsAz2rVRCOsXD45CFEB2g76NQC9ELmFhJ3A6bsOR+xGZf7wYgSw2C20QWsgPaiAL80lsiqOKWZXRDRDtqFQtM/ZReqN+CFgP5AIs2ZjH7uJiUlPMQrKf1q/TL7WijN3bDnwFzEKOlQXIF2bHcJxasmVEJmRaAcOQM7IaohxahIhx85Btv6at/lZkq//J0FYhItz6CDkaLDyK7EJjkZ2pJyKFTAeWI3TFuPDz6diMKItes127B3g7PFY7aiPbfLdwORqDcG3Lqjx279hFaiWz6mDj73qzCWF2ABGXlm4j/+57Cld36OyquWXnTlr/50lWbPFN6xUibN4s5IzLRxaF/cn6I9u3jmqIt8+pEdovtR+09dcHoScioQqya3SyXVPI4qnqcc9mhFge5/H/NOTIsTAZuAY4EZn0E4jBwbTTNYNof8Xprut7dhbx+sDbyV/mMEk8G+duZ8JxyM5r/7I3Ah0DyBdTOglpKSncc1Ivru/UhZSg0De/5v3Nhe9M4Js1q/0+gx9Mwqzty0UESdEkbHbsQhaLH6EMyERPQ6O+fcCLe2iM7DpJ0fgFUoK0v/w02l9+GsGQzNmWFX/z6fDnWfOtY64XIUK5SPRTE2AezmMyH+EKSomJz9B4xbpVMlXfxk1Vx/oNVUowGImvXovsIl7GHl5lF2LKdT/QGyHiUpAdw1E3lJqqcmrXValpaV5txUMIZSO0h6u9alXTVE5WBa++BoXvbwRcjBxHy2N89t0IEflOpHrp1TPVYSe0UnWPbaKCoRT9/xJkB42Gp7X7NmNY+LXw1mf7KaNsL+WSBF7KEvu1lFBIXXLznerzlVvUvPwSNWPNdvWvux5UqRVckxMPT18ROadL22nVNFvNf61PqUXwN2/2Ve2aV9f72qzf56NYi/0ByhZ7gzjekb24JHoeuN52z1aEZTaiNmYZur0UIiZRbxj+u9vQ5mHI9hPXQ976xHMuB9F5+SXq/hff1OsuJ3Y9+xn2NpoelqkK5g91mYXvXHCmatkkK95JUginlK71XQttsSPvdjBiBxGpvR3IpPpFarj+88hxEREBynjmzeEO9wC/IvrwurZG3zcM7gatvY44FUZ7bIPx0pDJhLQ6Vs3dVGxcAPPyS1Tbrt0TmRRXmTL6RNfkW+WzMT2i3V+A0C13ItpU+3+zcS7OakjEE3udIpzbeX+EkLRsK0oQyenjiLYwadB5dxXueHL4dzpCbZdo9XYDQ3CLGB9F2KXnw20/h9Pq5jlsYmdk1+mGUMknYaOUW7bvTCACP9yqYxe+mf2F95PFiONbeyvXjm9dg0AAu3vYTmS3nInQLHaWtybyPBbR1QWhFf6LcCAfIbYCFooRQ5mptmtTbb/Tw23HIlzyjWjCm8II/+0ETkMob4tvtGzvCpAXYVcJr0Xkz3asQ6xz3kIo6VISd+eOSF3Drp07ogw9NuwsKvb8b8euYt03cBreLOrfiLzjOdu1h8P3vIxICi0oRM4xIcLQIr+IBJGohUkBsl19jkjBQL74l3ALga5D7OW8sBLZWVIB5k77iMLt20ivXMVVsaSkhK8+mapftjgZv8hFFh0AH8xczbBBZs7z7WkuUftSUz0bxgAXUCZrqI6wiboY7/+Qd3XAowZCJ3idkZ/4bOcD+339z7pAzdmw2xUl5OKb7tDbXxDHmE+wt1GzWkW15P1TXOf/71NOVdmZLvZT16yZ0JLIgacS0UaWS9RDvgz9QQvxJ9TJxeAU0qJdJ/XYm++rCQsWqycnfaw69uhtepnneDUaAQFk4ZS2k1EppB76vzbq+wn91A8T+6tHrmujKqe7HEMVokjyw3U8ZrhXIQKlgxItEILR/rBbiW4F2w05O+Ol4t8i9uOsNSIOjbfPSUQ3MTP5IvjdDQ9IPIL5ZeXhzYNehtvmPp4yAf+LoAXe9nmxlMV4y/i9fBwLcTrEHDRoQeSJXIPzwSsgGjjTCzofUdN6+RhswOzd+xLRnT2OQjSg+i41HffuZZUvkV3qA8N/G3HaGYBwO5EWjkkBdkAjiKiC7Q/5OW4L12WICLQOYk2jv5gVOI+LDET2/iDCVt2JSMsqUcZt6G28gPf53ARZiPb62xFeHSTy6JWIaPtpxNbBbp0RRMS5+kKxBFwgWkB9TJ+F+7FfG+wxxgMSw3B/FTURalk3Nf8Ns+JoNiIijQUpiHmZ3tYzuBfBkbhl+AXE5849BPeEKkQwpC+OGciCvVG7vho3W3hAIgf3eTrM9v8pRD/jnyd+Z5AURBupt2k3AW+Im0PZhdtYNBa0NLSpl/mUWVyFEPWr1xgPWOgu11/hPofPw/yCdiFEYKJIRcTXevuPIEeOPlE7cRuJxoMcDKr0cFmM22ayE27dSLn3E4yE7ji3vCKEGLQjB6EHTC/pa/xF9fCDNMTvT+8jH/eiOyVJfYIQgCbi0Wtx6/6LCzhAQ8uk4Zb+PazV8bNNfkLyfOfTMFPq9i9uaJL6AjGG1b2Eoh1v2bi5kKuTOKZ9hjtwPsRynE6OXoTSQsO1CSTvK6iEeVsuJrmT3wo3m7oWs7GITuDqR+IWylTtBwQa4abuLe1YADEOMbFKVmh2U0CHWAI2REIW4jdn+hpviXBfLGiMTLZ+1LRG9CJfGPpehVMTOF37/60kjW2fYCrOwVv2A1VwG0QohC20W80mErIlEqqiyfcNJRE/ADCbcm3BaWeXhmgE9b53AheG6zTG/RH5sfHb7zgT56C3IS+lGW4zJ4UoeEzRPryCNt0f57iqImyXva0SJLS7fu3yOPuoa2ivAKefgR1XYmaBRyFH3kjt+p8kjyjeK8jELcS5HuGndWpbIWZjkYQdKcjWp993a4zjysBtz1iCeOlUxR3JqwSJPBYLcoCftXb8yBKOR/O+DpeZiKv5Yu26X2PP/QLdxPgnJOiAHiiiBDnn/ZzpabiPFGth+UE65jPXft5n4SY+ixFizA8ycR8texBC1w/qYw4ntwK3+/YuxGuo3KEd7ok2JXTaQux8djpuf4ASxKomErwofhOxVwNZsPoknhmljwxEGRTv4rGQjlliuQ23WnoG+yiamKmTbCToU1fEaLMI4ff7Ej3sy2+IE+aiOMaSiUzmcbZrxcBTiLFJFnL8LEZ88TYioeV6ae3cgfc2WgvZLexx4a1FMBkR6li+gZUQYu9onMGsFRIH4D8xPJsdNyHKrWhs7zPIoqmHEI9LkJ1yZpz9RkUAoZAtc/BYy1Rii5JhgmU7F62vIswEp5/kUXVwRzQrMlzzKjcl+IwgziFequ5oZT5uaWs0NENoFU99SxDz9uSnlCArOlnZR5rhrZePVB4yNeaB+gjFHWsfHyT0ZE40xsM1zUfZjpOtjoQ+lNkmzsPDAfaBOAdSQHKlawGi+Mt5lMdNjUVBLrG7Zu0hudHAveQmfspm/FkWPafdNxeNM2uCxqse3zBXfXXpFarw9nvVqhtGqHtP6qUqhFzGkZtwxshJBgZpfah+Z56v3vp6kfry711q4sIl6tTzL1WBQEAfS6yxeUDUs45jpOlhmer9p05U2+YOVVvnDFGTnzhB5dbJ0PtaSnJzLQWQBezop2bzw9UZr9ymrvr+RTXsy2fUibedp1LTK+pj8ZMk43S9bUQ0XdnqfBQ2luvkpkfxzpnnEdS8cmYsW0rPl8dSUuYhUYScp8lMoPQpNvOqYcPv5pKb3cE4X396FE/d4TiKFxE769QPmzdOVpU0Fr17MrVznHKY/K1FtBnyoT1voHXvRzH2Fwm3YwuUUb/9UQx48RaCWqCODYtX8ObQuyguKnUSUshOtjJK+zchqnE7ZgJ9A4hwozlAakoKy669hTpV3M4YAP+cMpmx3zhM8NcgFGqycDhhziS3cVNen/MTKSG3nWdJSQkXdm/Hbz86YuUsQ16IX2Rh09ffd1Urbht2jLHiu5+vZMB1s+yXNpPchV8LS5EWCHDBx4+S1dBsHPXV4xNYOGaK/dI6/HkP5eLmPB4LYcvX16JmLc/JB+jXuJm+APaaBqttl+7GyQcIBoN06tFHXwAJOU327eL9KL06u6LdZpE4x2NE1QY1PCcfILdLC30B1E6gu3OC2L6aWD6fgw05WeUknH+0SVBJnSUVQsSRxwD8/Pd61m/fTq3KZn+HD39frF/aa0fAN19+QUlJCcGgmd5aMHO6fimhI+Dzr9dz4WnmCPXT57mCY+21I2DLqjw2/bmGakead6QVc10B1RI5Al4LIO5LpX79g5u35LVBQ0vjA1mYuXwZ/xg/Zm8TgV8iyhMArhr5MOde45a7vDd+DA9e69DlxEMEOmIj1cmpxPcT+1GzmjP87uZtRXQ67xMWL9tqv3wG4hmULDiIwDqtGzFo/G2kpDmPwI2/r+KtM0eyu7D0m0uYCAQRSDjYwM4NctXsSy5Xhbffq1beMFzd12OfsYG6qln1GXKuenP+L2r2+p1q4sIl6vQLLzOxgVfG0VcITRNXt0Yl9cbDXdTmr4aorXOGqLdHdVUNaqfrfS0juelfjGxgTpMGauBLt4bZwKdVt+HnmtjAyZ6tlkFPxuFgAy3cZ6jkpyRbEDQkznHsK0GQQkTVySIAExEE5eMvq0pUQRCIYOO1OAeSLFGwn0jfkcq+EAVbZQ6J5x5IRBS8DYmo4gd2UfBcvGMhEgCuxWzY4ackogw6ESFk7O2tx3tB7Gtl0Erc+olEso/0IX5l0BzCRHsMaIQooHw5z2YhdmsvItKudxFdwfc+BrcEp6rVD0ym1X8hW3RNZFGODY/lRYSgqYu8/E8MY/DMioFQ27op+26EqAsgquVHEALvHURK2hfZ3fT8gQqxeIolR0IAuBl/yTlGI3GFPkbm4EG8Tc/2CfaGQUhL3MYQ6/CfdTMZBiGxBJm829DXG/gzaS+XBiGxIpkmYY1we+rm4/TG9YN4TcJKkKxoscKUg3AckSfMyyTsD5yBHBVy7MW6i+4zeBmF9sVMO0zBbBTaAHdk0u3YZAAxYl8YhVoIINZA+rM+5VG/C2aj0BmYjUL9pIHZr0jULLwOkkXTXqcQp9lVPNgXZuEWgpjd0nUi9F94m4WHcCe1/INybhZuIR7HkJ7IVqy7SOtRMhOBH8eQZJh0gZz7ptzIVp7gg9YxBMyuYRbhF0QoVp1t2o37a9xDWfTtZKE67lCsVtFD2SaKCogNg77DmHbClZQZvAZwe0wfUK5hEL9zqFWKiW72HQ/2lXOohQxEtBpp1znonENBVr8e8FlXOLTCOwx9pLy7iYwpUrTt3SR/xwE5epZ79PkcTmvcahwk7uEQPUBECG9Z9zrKgjMlA34DRBQRORVNrAjhzs5pX3C9tfoHTYAIC7qD5zyEDghgDgOnv6BrkjCGFCThst7+4wiHosv9kxUlpDpuN2+92Dmc9jhlJsWIJPSARk3ckqxhmHnljzDnzf0P8QeJCmGmxp+w1TkMt9RyB+74frGgFeboJwsQgk8/4zvhDoV7UASJAneYOFOQ5BeRXaEDyQ0TZ9Ji7q8wcS8jOopmuM95/Z0cNGHiwBwo0l70EDB+A0VWRgIqPoycnXchL98KFDnO0EY8gSItJUszRHr4OLKIbtHG4xUocjdub+bWRNb4HVSBIkGIP9OXPxXz9h4tVOzNeKumNyKiVP36S+ydULFziBwq1stNqyPuaKmKgzBULEi2MP0FFhLdRsBLXBpreRX/1HSygkV7RT+x4xbDfUuI/bgr1xiEt447kn7egpfCxG95m9jDxbdCgk7H26eXosuOdLzlID8iXMQBj2ihYHeQQMKIVh27qCcmTlUTFy5RT076WLXv3tPUR7wJIxwq4upZFdQTN7VVP77dX/34dn/18LV7LWGEVeyhZA9ImIJBL8YtjYsrZcwp515sTBlz1pXX6S9yYRxj72Zvo0JaUP08+WRXypjfppyqsqokJWVMCWLlox+TX7AfNYCJWJ10RibWbhy5HKGoA4jplf2/sxBhjRcqIfxyKkBO7bpMXLiYSu6U9ewuKuKc41uy4g9HHt2EkkbdcP5RPHbDscaKYyb9wWX3zLdfehIxVfNCEPFxsCeoHgdchAi+dP7/I8SLV0+0tdcRryVvG4S6t8/OWoQaXoUIQu7W7nmcCBapiHFEqX1d5559jZMPkJqWRte+Lmluj3D/fktj+80DezTwHNiQ3rn6pWiE3zCck7+RMjX0U7jpor6IPGOfi4SjLYAM3LvEUciXb6fuNyBStT9t155E1LIW6uCOAVgb0dA9gxhYlqJCxci7YlqFeA1yzTisnreVd8W0IJq3fE/kmBuOWDHZ2dxauJNC3YK8Iwv3446rfAZiBKq/74oknt7PE3rDAYSivxDZyjMR0e2fwEQk+eEExMDSwhbEzFl3WtuDWN7Yw8dfjohPmyJp27zy7fDj13MiDvzbL2dE/D9WfPVdHoN7NTT+N+eHDbpPZkVEyWMpegoRm/tZwLE4U7V/iUhBddyKEIB2r6YLEMHUe4jJWifK1MS/I/KD0Tg/tKShDu5waNFKAZE1erkkkDx65AuvGPMGP/r6u3rd5SSYPLpJbqbaPs+dPHrXwrNUx5Y58bKKCnPyaAtBJEZyLO3tJDbDllREqDaWCMGlahO7m9RO3CHakp4+/qIbb1efrdis5uWXqM9WbFbDht+919LHt26area83Lt08he83ke1Pbqa3ley0sdbCCFyjFgXlt/cg77Sx7sSOtTPrKr6NWmmOjVoqELBoGkAIxB64J8IAWNS8Ph5KffbXkoK7oCRKpSaqnJq1VGh1FSvtuKx88vGwzWrWtU0VT3LtcisYhmUNEKSQse72OcjBjQnI0eqa1Gl51RVh3drreq2baJSUo3yiJN9POdo7Z7N2AJbB9Bi5aSlpHBfj95c2/H4UhfxxRvyuGDyBBauWWVvuITE/AEnIduwjoaIXL6x4T8vKESJ86zP+lUReqZdtIoaHsCdABtkrD8Rv9ew410GUoJ0uPJ02l12KsGQMAZbV+Xx6a3Ps/qbJfb7FiHhfVSEtpsgx7CdLslHuKbvAoi3Sql3zL0n9WLECW4N6YbCAlo++2/Wb9/u96HshNGMcKcLcL6k/pgVI9mIYue0CO1vxsmJKCRFy9go46qCGHLat0Jre/RiU/OR5NfjPf6fhlMhNBnh909EiN2IBK+Otpf0p8uN7gi2Rdt38OppI9i2xs5QcDa2rOseaIc49djZzI1AxwCyfeUCVKuUzpobR5CaYmZHH/tqFrdM8wyOtR2h+GchThoLcAs27kbEqBaWIY6OXhEuWiA8dTtEbr4SkTSOQyjhz3DGKCihbFs2IQNh33TC9VrEjPtcZCKPRARTy5DdcTxC8JpwNnIEWtiGBKtYpdWrjSyEbuFyNAbCNVQxjcvmPEtqJfNm8vOEL/jsLhNTERemhrBppZpUz/GcfIAWtVzxiH5AHn4WkqVjj15Bw0PIbmP5/h2OWBcP96j/E5FNxnoi9ItF3QYRXno3srPZkY6ImvXJv5kyydwL4eIXWYiThx134p58EGXXhHABOfe7IovhcsKyhMx6OZ6TD1C9ibfAKg50CSJbHwB5hV6LXPB3gWv7Hw08ihA00SYfhHPQgzregHde4WjYgHyx9uDUKcgXaze4qIgYp56o3X87Mv548QDOKF3f4T/rSR5yVPwfti18R/42IgWC2rFxS+yj9MYqK0xKTYA/N21k/qqVdKhvXmWv/fi9fime+EDTka/z7PDvVMQmsBuRiRkv/I0QNDMo21lCyM60G5GzW5HA7RhJ/NlJQEzb7P6FlsuZnw/BjgC297hj0zZWzPmZhsebWfbFH7gEZG8gllSRkA5cgVvwd48VFKLUgLJx9RymnH0BjavnlNYqUYr7Zn7OyBmuyFxFyC5wH0KU+UUtZOHZibhLMEvM/KIeQnvY4+cWIUdTJ63ug8QnO7AQQmgcO/3xLLGHrO2C6Egc3EiV2tU57YUbqd64ftlFpfh2/MfMfthxsm1HdqBIW3dF5OjTNZgjCMsSKqNlwEpPTVXXd+6qXh00VI3ud6rqWL9hNL42D2HDYgmWcLnWxgYkLUsiaIi3AYZVHkuwDxCOwN7mWmKLjnIEIlr3HGdKWki1Pq+X6v3IFeqkuy5S9do1M9XzExFluOG+u/RKffAXtSJaWYQ/4QQIwaaLiZNB3h6ObImm8T1F4oEX6uOOaOI3yEQWQnOYTONjLQvwF6JGd1rxzEk0FHecHlOZhrAw43AHhrDXiZZdBGQL1Y0mTvBxXyQEMYtWi3ETgfFgktbupz7uCSHHg5cd4mrEVuBkzEakepmP/90yF/g23K4Xt1WKZsgDmqx7VyDbtp1PPBazda5CdpQxRI9lO0q77xfidxIJIruI14vbRvxBKEAmyN6eH3O3/rh9KK1SgMhG7E61hyGEnSlA1lokq0ssR21cqIY87KUItX4skbfO0/GOsrUNEZ96Kfgr496yo65UAwK4/e4U7sUPyBE5AAAD30lEQVS8hfjcsUwGnpEcXFsiO6HpnRQjO2i9CPdXRQxFLka8idtTzn0IUxFR7N+YH3pV+H+T/mCgVrcQf0EQLQRwKz0UQmgdi9v616EQ8Qk9NtBvmM/gHOTc9aKp5uLmSg4qZCMSPy9CZyHmc/49rd7HMfRpykU8iTK+tzVu/8V8nF4/kdAct+WzzlZVQix/thjGohCDjsGU0+hfewONMTttWmUKTp69IW4CyKQt1HG/oe0PcWvm2uB21cojegauAO4oZC9r/w/G7Ciqwn1aYWP+J9EdoUJNL2cnwhZZPPTN2v+rEHn5lchLvAA5v62v6F5Dmx/gTUR2xs3CraMsLFs2Qvtcg9gYnIE7jNsmwpJTRJCjB6ayShFyFBwUzh+JIoiwOV5GI3kIm1QJf3kDf8WcePoTovPGXXF79q5BlEgFPvq+jOiCnPfwH+zyfwoZiAze60X/ivk891M+w7+DRXf8yTz0sgiRJHrRN9+R3LRyBy3qIixbMqSPCjEtizV6d0/cXk3xltXIzlCu2TQT9jdF2hYRBHXzqpDbuClDL7+GBkc0ZvXypUx4fjRLF7vSpgxEgjvHilnYAjCnBAP8c3Bjeneug1LwyZw1jJ38J7v3lHjdX4jsCI8QWSFzCFEwAHf0UNWt/+lq5toCh0n47HU7VM+BZ+pf4Iw4+mxrb6NihRQ1e1wvl1n4rJd6qvSKLoPMYsTmoL5n6wcI9vcOYEcFhDgLAWRVz2HCgsVkZldzVSzYtpUzOzQnb+1q61IJQsSpGPprgU0gc//VrRhxqTkM/wNjf+a20XYnJ57AHRHkgMReczmKAzWwjadzz37GyQfIqJLJiacMZOILo61LQcR2MG6c29877eD5pxyhL4DcRPoqT0hmDtxE4ZjtylUjq9erZmdH/D9WZGV665/0TGLEnymk3KE8LQBHcj4tK6gLi3+I/H+s+PqnjZ7/7d5TojuH5iW18/2I8rQA/kbMxAD4fu5sFrhN0AD4ZeF85kxzuBOsR9SyR8ZQrrI3cMczP1C020ztZ1QKcfHppVLrAoSFPYS9AEdApYwqmWrEU2PU3E3FpVzAPWNfU5nZLn+9WDKGWchAixbWs1MdtfTD01ycQLj8enj9jJZoR9UhJBfpGJQq1WvWVscc11HVqFPPJIRZQ/yTcrHeXjAYUM2PrKpOaFtTPXFTW2vyl6rvzo7FVe0QEkAL/Keu24YoeBKBngfJUcbc2eFN9ePZyaU4DyEqmhI9Td1iyhIwJIIAov3zEgtH8k88hL2IIGJt+x4iay9COIWpSASTeO0GvVAbUS/PQ1S+m4BXKF+ykqTj/wEZx/FtsfRm1wAAAABJRU5ErkJggg==;" vertex="1" parent="1">
          <mxGeometry x="627.59" y="78.18" width="56.82" height="56.82" as="geometry" />
        </mxCell>
      </root>
    </mxGraphModel>
  </diagram>
</mxfile>
